<?xml version="1.0" encoding="UTF-8"?>
<svg width="1921px" height="1081px" viewBox="0 0 1921 1081" version="1.1" xmlns="http://www.w3.org/2000/svg" xmlns:xlink="http://www.w3.org/1999/xlink">
    <!-- Generator: Sketch 47.1 (45422) - http://www.bohemiancoding.com/sketch -->
    <title>danvik</title>
    <desc>Created with Sketch.</desc>
    <defs>
        <linearGradient x1="50%" y1="0%" x2="50%" y2="81.6924261%" id="linearGradient-1">
            <stop stop-color="#273F68" offset="0%"></stop>
            <stop stop-color="#3B557D" offset="21.5707439%"></stop>
            <stop stop-color="#597398" offset="50.0096478%"></stop>
            <stop stop-color="#7690B1" offset="71.7321858%"></stop>
            <stop stop-color="#92A7BF" offset="100%"></stop>
        </linearGradient>
    </defs>
    <g id="Page-1" stroke="none" stroke-width="1" fill="none" fill-rule="evenodd">
        <g id="Group">
            <rect id="Rectangle" fill="url(#linearGradient-1)" x="0" y="0" width="1920" height="1080"></rect>
            <path d="M186.503706,772.129947 C186.094721,771.031492 185.874409,768.267081 185.855051,767.095988 C185.829688,765.561567 186.28304,763.867218 186.636563,763.013795 C187.781959,760.248657 187.219871,759.093635 186.292297,756.464703 C185.631219,754.590993 185.309514,752.836207 185.840244,750.706459 C186.355161,748.640271 186.395041,745.971962 185.484149,744.146676 C184.090507,741.354012 185.326235,739.074584 185.640266,736.566432 C185.88571,734.606004 185.858087,732.603221 186.220889,730.66974 C186.365097,729.901122 187.092577,728.976774 187.801925,728.631446 C189.58437,727.763623 190.733998,727.021217 188.875409,725.065061 C188.396428,724.560929 188.424206,723.587288 188.182415,722.84121 C188.044953,722.417108 187.928349,721.92125 187.633205,721.627845 C187.140034,721.137631 186.511394,720.783721 185.939759,720.372454 C185.368124,719.961188 188.358926,718.66126 189.568499,717.805672 C190.778073,716.950085 191.239424,719.498618 191.270972,720.374079 C191.384502,723.522858 191.145843,726.684298 190.881918,729.999324 C190.617994,733.31435 192.452148,738.521989 193.220532,742.721676 C193.356951,743.467406 192.987943,744.29825 192.893917,745.094705 C192.434731,748.983608 192.697883,752.825208 195.249794,755.937045 C196.075785,756.944304 197.951096,757.341207 199.406616,757.51592 C201.060298,757.71441 202.978871,756.936803 203.392398,759.496259 C203.88058,762.51815 202.12046,761.613356 200.207128,765.283983 C199.069182,767.467074 197.995611,771.215286 196.575141,773.536082 C196.732007,773.821204 196.848129,774.12273 196.904327,774.39864 C197.501884,777.332691 199.186553,778.167788 201.735952,776.82769 C203.802967,775.741136 205.734453,774.866487 206.089368,772.021127 C206.199245,771.1401 208.270513,770.535003 209.400096,769.741351 C215.219181,769.988865 215.632225,769.702496 216.060965,769.512009 C215.866496,770.012797 215.599595,770.498506 215.491747,771.017271 C215.220902,772.320331 214.701346,773.701025 214.940024,774.921813 C218.777286,776.502736 219.841337,777.253164 220.926168,777.283706 C223.543457,777.357396 226.17621,777.163777 228.790213,776.935015 C235.272079,776.720055 237.146809,774.742963 238.849727,772.43392 C240.571666,770.099051 242.016013,770.381399 244.680798,771.862845 C246.953706,773.126393 247.607052,776.468095 251.101501,776.178247 C254.102547,775.929342 257.051746,776.505636 258.112781,772.5102 C258.303868,771.790547 260.09534,771.151815 261.187305,771.080754 C264.315373,770.877161 267.376983,770.98812 270.296994,769.255642 C275.509341,770.277089 276.600049,769.929751 277.669589,769.916528 C284.616982,769.716724 286.600507,769.371821 288.599323,769.200278 C288.739665,769.188216 289.120793,770.401619 289.150292,771.05601 C289.192588,771.995107 289.014337,772.94418 288.930248,773.888999 C293.747413,773.180211 294.172848,771.950299 294.789253,771.156879 C295.289131,770.513468 295.8297,769.901605 296.352234,769.275746 C297.248472,770.153217 298.678882,770.892006 298.948974,771.932089 C300.153869,776.571786 301.031396,777.131031 305.619934,775.467912 C308.942337,775.292928 310.851999,775.920952 312.476317,773.636073 C313.874637,771.669149 316.262372,769.652274 318.506361,769.234262 C321.192062,768.734016 323.376107,767.14853 325.826995,766.732451 C329.147388,766.168799 329.39722,763.554289 329.911267,761.544683 C330.36102,759.786572 329.342127,757.663492 329.036428,755.691678 C331.198319,754.739842 333.04241,751.114207 334.915575,754.533773 C339.187396,753.051998 343.086363,754.497238 346.079831,755.521295 C350.678112,757.094351 355.17769,755.757635 359.649316,756.917202 C362.922502,757.766024 366.402026,756.776163 369.765217,755.337999 C372.17729,754.306519 375.226392,754.79447 377.984835,754.536016 C382.12335,754.148237 386.25278,753.660498 390.393383,753.299222 C398.665232,753.278113 402.397063,753.235004 406.127117,753.29841 C407.717084,753.325435 409.635561,752.549935 410.547168,754.812236 C416.406868,755.188899 420.878725,755.126074 425.344087,755.271926 C425.725718,755.284413 426.064241,756.615523 426.42279,757.334093 C424.055798,758.248988 424.891821,760.493698 425.297693,761.730182 C425.587308,762.612408 427.728207,763.027559 429.112376,763.372385 C438.713574,763.90414 443.524843,763.721617 448.315738,763.336236 C449.354272,763.252688 450.329477,762.21651 451.298651,761.566565 C448.131553,757.248612 452.876363,757.775999 453.863205,756.591282 C455.353541,754.802184 457.243717,754.909528 459.688033,754.915463 C465.881887,754.930522 472.362303,756.892072 478.336636,753.561311 C483.802334,753.63473 485.412637,753.159885 486.876605,753.302876 C489.865473,753.594753 492.766848,753.093386 495.891187,754.314541 C499.092153,755.56566 503.014703,754.995648 506.624131,755.164252 C508.033122,755.230055 509.418375,754.805683 508.339401,757.246137 C507.256368,759.69587 508.851477,762.784183 511.663969,763.315359 C515.888198,764.113185 520.235177,764.265126 524.531819,764.671656 C531.107807,765.426568 535.849253,763.370297 540.608175,765.095971 C541.25259,765.329681 543.834271,762.736628 544.027928,761.257308 C544.819876,755.206278 544.613654,755.348399 550.670336,755.110145 C553.93061,754.981884 557.230473,754.065752 560.385818,753.630845 C564.601,753.049872 569.361815,751.786015 573.759365,754.435012 C575.260294,755.33914 577.529355,755.145791 579.448257,755.150663 C597.711556,755.197173 615.97532,755.231466 634.237884,755.106027 C636.336873,755.091607 638.403579,753.882649 640.534192,753.609522 C646.695726,754.352643 649.121291,754.514191 651.334834,753.953691 C655.597995,755.350835 658.205888,755.075137 660.327262,755.146565 C663.868916,755.265836 664.774917,756.414133 663.973844,759.89583 C663.743729,760.896013 663.694242,762.046939 663.955828,763.02319 C664.273009,764.206901 664.318631,766.148811 666.631071,764.360969 C674.593008,764.484765 678.071875,765.560184 681.624354,765.876129 C686.429785,766.303497 686.553735,766.281615 686.750292,771.288639 C686.807047,772.733589 687.252045,774.234946 687.839627,775.569206 C691.519923,776.084994 692.47456,776.491331 693.032218,776.698134 C700.071065,777.571235 706.001632,777.91695 711.931427,777.912697 C714.421015,777.910919 715.390113,775.782388 715.837275,773.570541 C717.023961,767.699849 717.01012,767.60157 722.873803,767.250752 C726.276042,767.047159 729.701943,767.27337 733.11408,767.184756 C740.685531,766.789052 744.07625,767.180658 747.469211,767.50105 C752.402304,767.795962 756.849495,767.722389 761.296995,767.691768 C771.241045,767.651019 777.52243,767.319725 783.80683,767.256745 C787.095095,767.223844 790.397664,767.906149 793.67634,767.786645 C799.210161,767.584907 804.73099,766.666803 810.255764,766.6796 C815.266644,766.69116 820.270952,767.600101 825.287167,768.001875 C828.24727,768.238912 829.532776,769.242922 828.676339,772.529841 C827.990169,775.163295 829.668865,776.026731 832.276913,776.158104 C835.663766,776.328835 839.01474,777.123105 842.398035,777.495303 C850.304685,777.519931 853.908353,777.885634 857.518438,777.950817 C861.350829,778.0201 863.262424,775.497411 862.896219,771.656855 C862.821215,770.870665 863.812349,769.611911 864.63399,769.171514 C869.862537,766.368681 875.739442,766.477669 881.392417,766.203093 C884.842597,766.035532 888.353554,767.494477 891.864742,768.04796 C899.43689,768.151613 901.908231,767.967273 904.380035,767.968472 C914.220781,768.501928 921.169701,767.970714 928.000547,768.648998 C933.064549,769.151835 937.625019,767.324674 942.482953,767.128851 C945.555485,767.00494 947.269286,763.275653 945.739747,760.567233 C944.045122,757.566335 944.113708,754.135653 943.123579,751.020818 C941.488339,745.876216 941.229847,740.314722 938.063367,735.575065 C936.493465,733.225136 936.090455,730.120026 934.972355,727.434494 C934.334899,725.903405 933.175817,724.593193 932.504262,723.071944 C930.732082,719.05766 929.025472,715.010495 927.441343,710.918907 C926.723084,709.063619 926.12313,707.094569 925.934847,705.132439 C925.848321,704.23125 927.005624,703.267506 927.377319,702.251104 C931.365208,701.589251 933.479932,700.446193 935.403743,699.989924 C937.036354,699.602745 938.661156,698.876269 940.296241,698.856145 C949.373802,698.744451 958.455772,698.915994 967.530627,698.723883 C969.83781,698.675034 972.102464,697.335593 974.42689,697.176324 C976.521741,697.032812 978.737682,695.803209 980.91295,697.903903 C987.074252,697.481947 987.450895,695.697005 987.180262,693.437874 C986.578684,688.41668 986.987881,683.274301 986.986335,678.181331 C986.985484,675.248788 986.916897,672.313944 987.013475,669.384571 C987.073246,667.57216 987.583118,665.764388 987.54956,663.960907 C987.428935,657.501414 987.123274,651.045574 986.964838,644.586467 C986.851946,639.985238 988.731065,637.273067 993.966106,637.001043 C995.356385,636.928783 997.77646,640.631916 997.712668,642.164879 C997.579439,645.369215 997.70277,648.584203 997.719627,651.794803 C997.72241,652.322634 997.719936,652.850485 997.719936,653.378336 L997.719936,678.190146 C997.719936,684.13822 997.805611,690.088189 997.675862,696.033421 C997.626916,698.274612 998.39876,698.893705 1000.57658,698.848819 C1006.90807,698.718412 1013.24443,698.764942 1019.57739,698.850501 C1023.50953,700.864089 1024.83579,701.093722 1026.30138,699.469245 C1029.72024,699.53412 1030.04601,701.492152 1029.62343,701.901136 C1023.46012,707.865642 1021.23583,715.911181 1017.98955,723.415667 C1014.50419,731.473192 1010.94947,739.501953 1007.5879,747.610782 C1006.953,749.142315 1007.28139,751.047031 1006.81776,752.680941 C1005.66911,756.728918 1004.18837,760.685267 1003.11488,764.75072 C1002.68589,766.37506 1001.43441,769.023207 1004.87276,769.059703 C1008.30268,769.096162 1012.16198,769.597452 1015.05698,768.239917 C1018.31021,766.714357 1021.63714,768.12022 1024.65036,766.629649 C1030.79257,769.098288 1034.48129,767.494284 1038.20914,767.019438 C1042.87361,768.162631 1044.04715,769.058003 1045.22966,769.046017 C1050.24734,768.995061 1055.26101,768.617257 1060.27931,768.520139 C1062.08729,768.485149 1063.9187,769.159915 1065.71369,769.058041 C1068.99554,768.871923 1072.1065,769.183576 1075.53998,767.547096 C1078.65767,766.061126 1083.11909,767.378259 1086.98697,767.497725 C1092.48545,768.071003 1095.92496,768.199824 1099.34932,768.503011 C1102.00028,768.737688 1104.10596,771.366427 1103.46842,773.534354 C1102.73942,771.872859 1102.03105,770.733609 1100.56214,771.169096 C1099.42772,771.505416 1097.93221,773.254055 1097.95463,774.346911 C1098.01154,777.110424 1103.21179,779.291883 1105.41381,777.56733 C1106.99655,776.327753 1108.82873,775.164842 1107.16735,772.297212 C1105.26102,769.007007 1108.0166,766.517027 1113.11455,766.575174 C1115.68401,766.604442 1118.25541,766.627562 1120.82379,766.566398 C1123.18293,766.510261 1125.19451,764.332089 1124.30637,762.25668 C1123.0954,759.427055 1125.29263,759.211244 1126.59793,759.065759 C1132.2066,758.440365 1137.84566,758.012106 1143.48471,757.767067 C1146.05859,757.655258 1148.6763,758.432787 1151.24213,758.277637 C1155.37732,758.027533 1159.49836,757.421044 1163.60154,756.806551 C1166.24647,756.410499 1168.83604,755.387737 1171.47455,755.289092 C1173.51389,755.21285 1175.5144,755.57923 1177.66918,755.355706 C1180.68016,755.043337 1183.73847,755.160154 1186.97013,756.193142 C1191.43572,757.6205 1196.45843,757.361311 1201.25196,757.682823 C1203.74132,757.849727 1206.25155,757.692141 1208.75057,757.753768 C1208.89849,759.888562 1208.28794,761.046988 1208.04847,762.281037 C1207.33934,765.936055 1208.47669,767.322354 1212.24258,767.170916 C1214.41198,767.083733 1217.01863,768.237752 1218.56379,765.757243 C1219.01157,765.038364 1218.8587,763.845219 1218.69277,762.921277 C1213.64485,762.788783 1212.73274,762.754065 1211.82102,762.741307 C1212.6889,761.698363 1213.36169,760.236441 1214.47414,759.718333 C1224.43714,758.538102 1229.6438,758.072265 1234.8582,757.730842 C1239.44612,757.430361 1244.06002,757.45611 1248.63394,757.031487 C1253.12413,756.614673 1257.56598,755.674222 1262.0564,755.26257 C1263.39688,755.139702 1264.80432,756.169017 1266.22538,756.415061 C1269.23659,756.936494 1272.26489,757.451973 1275.30789,757.674975 C1280.10265,758.026218 1284.938,758.531336 1289.71475,758.255212 C1297.42461,757.809518 1305.17847,759.437803 1312.8915,757.225994 C1315.94888,756.349317 1319.46927,757.155436 1322.77454,757.051629 C1324.90852,756.98459 1327.03152,756.538663 1329.16488,756.489486 C1337.56485,759.286055 1342.37206,758.063372 1347.06468,758.300099 C1348.87034,758.391186 1349.89967,758.508138 1349.99076,760.802065 C1350.13133,764.339782 1353.50775,767.206484 1356.9437,767.212206 C1360.88597,767.218779 1364.83117,767.295755 1368.76849,767.156881 C1369.77138,767.121506 1371.08294,766.642639 1371.65359,765.904468 C1372.34038,765.015979 1372.38786,763.633275 1372.712,762.464487 C1368.13552,763.442324 1365.71189,763.400144 1363.2915,763.411279 C1361.35501,763.420209 1359.40723,763.53519 1357.48713,763.357732 C1355.58729,761.54476 1356.12036,760.439494 1356.81998,760.321652 C1360.67812,759.671668 1364.44749,758.103774 1368.54363,759.977059 C1369.82272,760.562013 1371.90814,759.403239 1373.61869,759.017354 C1380.11187,758.102962 1384.0362,757.874316 1387.96269,757.726124 C1391.7565,757.58296 1392.96506,754.388927 1394.87171,752.023031 C1395.67278,751.028976 1396.16348,749.718899 1397.10605,748.918347 C1399.12745,747.201643 1398.92888,745.270075 1398.32792,743.047402 C1398.00254,741.843491 1398.01105,740.511453 1398.07631,739.247963 C1398.19972,736.866565 1398.24488,734.438752 1398.79063,732.141366 C1399.02693,731.147253 1398.46355,729.113116 1400.76702,729.18205 C1402.8297,729.243754 1403.11193,730.488165 1403.88393,732.155787 C1406.21277,737.186106 1404.83362,742.814716 1406.91981,747.798795 C1408.16256,750.767854 1409.23488,753.830146 1410.76172,756.645718 C1411.25164,757.549169 1412.91038,758.144524 1414.10256,758.280034 C1417.58352,758.675584 1421.10097,758.97212 1424.60033,758.937325 C1432.32635,758.860387 1440.06041,758.732184 1447.77066,758.278178 C1452.21151,758.016707 1456.60024,756.713647 1461.03522,756.566616 C1464.28652,756.458827 1467.5604,757.622008 1470.85099,757.937683 C1474.31138,758.269633 1477.84336,758.651729 1481.27112,758.300602 C1484.56603,757.963122 1486.50624,759.048903 1486.74934,762.34653 C1487.04317,766.330174 1489.0092,768.066055 1492.40541,767.882024 C1495.458,767.71659 1498.52666,767.863311 1501.58806,767.842859 C1505.09515,767.81943 1507.4962,765.583883 1507.60677,762.03476 C1507.68966,759.378611 1508.9587,758.322832 1511.52353,758.309919 C1522.98613,757.765676 1530.64133,756.806629 1538.16724,758.766052 C1545.82475,758.98743 1551.03373,758.979041 1556.24287,758.979041 C1565.04122,758.979041 1573.84668,759.188858 1582.63528,758.894526 C1587.35063,758.73663 1592.0216,757.414084 1596.74097,757.173762 C1600.46688,756.984048 1604.15244,757.276409 1607.93078,758.563503 C1611.09842,759.642517 1614.95841,758.634486 1618.51081,758.66499 C1623.69011,759.300011 1624.58196,759.617155 1625.46546,759.587154 C1630.0973,759.430148 1634.94703,758.246359 1639.29015,759.262084 C1643.12401,760.158769 1646.08643,758.642141 1649.44753,758.366714 C1653.15304,758.063102 1656.87014,757.870063 1660.58616,757.748626 C1666.65668,760.237833 1669.79617,759.550115 1672.88077,758.318773 C1676.09882,757.034115 1678.16707,757.925079 1679.32105,761.202834 C1679.80479,762.576684 1680.63725,763.826391 1681.14403,765.194442 C1681.2693,765.532347 1680.74272,766.111851 1680.51586,766.580278 C1679.37812,764.713991 1678.76602,764.078119 1678.19228,763.411549 C1677.23548,761.731419 1677.18924,760.979175 1677.07743,760.245914 C1676.33899,760.872391 1675.20991,761.361155 1674.93185,762.149934 C1673.8968,765.085803 1675.25847,767.293435 1677.97175,769.210485 C1679.3608,770.191995 1680.05068,772.171445 1680.9866,773.741542 C1679.36714,775.460451 1679.01934,776.385204 1678.69179,777.301762 C1679.90345,777.354728 1680.83505,776.834417 1681.44529,776.060599 C1681.82495,775.579336 1681.65128,774.693669 1681.85665,774.029922 C1686.25884,776.382421 1685.00341,777.352254 1682.12496,778.048013 C1681.56436,778.183485 1680.73762,779.598897 1680.82855,779.698528 C1682.72128,781.772777 1681.09656,782.879204 1679.77602,784.174764 C1676.3826,787.503939 1676.61055,789.422419 1680.29378,792.743553 C1680.89119,793.282075 1680.97207,795.005738 1680.5873,795.866854 C1680.1045,796.947183 1678.72056,797.588236 1678.04042,798.625457 C1677.02377,800.175915 1676.47168,801.819316 1678.98578,802.722652 C1680.88314,804.281499 1681.60751,804.494023 1682.23028,804.429767 C1682.59571,803.074398 1681.85928,803.018221 1681.64633,802.655109 C1681.29451,802.054844 1680.89644,800.968484 1681.18331,800.586466 C1683.91779,796.943124 1686.34745,793.422533 1682.08862,789.158784 C1681.71344,788.783145 1682.2411,787.007521 1682.83216,786.268576 C1684.05774,784.73652 1685.33683,783.505372 1685.77015,781.306863 C1686.246,778.892273 1687.76386,776.667204 1688.99037,774.449442 C1692.29348,775.218775 1693.32467,775.286163 1694.34194,775.26169 C1697.1907,775.083343 1698.29658,775.54481 1699.42133,775.909779 C1698.52051,777.576222 1698.97641,780.084026 1696.16925,780.554348 C1693.44607,781.010597 1690.74484,781.681187 1688.10192,782.481798 C1687.36565,782.704838 1686.87,783.722768 1686.26394,784.376037 C1690.83655,785.479332 1693.60999,783.756364 1695.86692,786.102291 C1696.0146,786.255933 1698.08193,784.946842 1698.8912,784.004497 C1700.91739,781.645154 1702.69861,779.076343 1704.69449,776.688894 C1708.21844,781.380204 1708.15519,781.11858 1712.78471,780.683131 C1714.19107,780.55083 1715.93503,782.241939 1717.24396,783.411539 C1718.23865,784.30026 1718.56913,786.369483 1719.58702,786.69722 C1727.14138,786.410735 1728.25871,786.412475 1728.9953,788.631126 C1729.98968,791.62607 1731.04716,791.742519 1733.78008,789.762218 C1740.38584,788.644851 1742.89205,787.661177 1744.59101,790.316978 C1747.05315,791.571247 1750.02701,788.291366 1750.42291,792.183961 C1750.49111,792.853314 1752.92897,793.343238 1754.31337,793.787463 C1756.8567,794.156104 1757.38327,794.786563 1757.97294,795.270804 C1758.48266,794.549953 1759.13311,793.890265 1759.47766,793.097619 C1760.9598,789.688181 1764.49349,792.207854 1766.72876,790.468688 C1769.32482,788.448758 1772.01646,790.8214 1774.63093,791.34407 C1777.93404,792.004376 1780.89058,791.483021 1783.45232,789.374401 C1785.07472,788.038826 1786.40855,786.35773 1787.98054,784.953143 C1788.65047,784.354734 1790.18844,783.558686 1790.32546,783.718012 C1791.4448,785.019487 1793.26236,786.464785 1791.44356,788.341394 C1789.27664,790.577173 1788.60037,792.343248 1792.06493,793.898771 C1792.32319,794.014756 1792.30046,795.398194 1792.004,795.989837 C1791.05323,797.888175 1789.12772,799.903542 1793.3168,800.226756 C1793.56949,800.246319 1793.97714,801.386844 1793.86734,801.912762 C1791.92343,803.019807 1790.90183,803.085764 1790.8477,803.371978 C1790.18535,806.870415 1787.77471,806.602604 1785.15498,806.300732 C1782.6449,807.539768 1783.24849,808.51401 1784.12287,808.980349 C1788.05972,811.079922 1791.33871,808.909057 1794.39036,806.879268 C1796.47052,805.495753 1796.09705,803.112828 1795.94488,800.767481 C1795.73657,797.557268 1796.3482,794.302942 1796.34185,791.068024 C1796.33536,787.651009 1796.00967,784.23496 1795.8391,780.817713 C1795.80554,780.147934 1795.93761,779.459327 1795.83152,778.805709 C1795.40129,776.160424 1797.04349,773.173909 1794.28706,770.82431 C1793.80889,770.416697 1794.57764,768.495742 1794.83605,767.28779 C1795.0988,766.060237 1795.86848,764.774536 1795.66868,763.646768 C1795.12648,760.588149 1796.79373,754.667737 1799.45661,753.391604 C1801.28438,752.515661 1801.06432,751.277244 1800.79662,750.146093 C1797.4799,749.363267 1796.67682,750.421676 1795.87235,751.293443 C1796.4167,747.129171 1795.49547,743.171681 1795.32907,739.173211 C1795.19205,735.887646 1795.65275,732.43367 1796.62919,729.29732 C1797.24716,727.31209 1799.38531,725.834046 1800.66378,724.004237 C1801.19685,723.241032 1801.36696,722.168744 1801.50027,721.208982 C1796.80301,721.019249 1795.94194,719.955795 1795.92601,718.879951 C1795.89028,716.437389 1796.07895,713.952551 1796.53207,711.552034 C1797.05478,708.782045 1795.80013,706.723608 1793.83208,705.469068 C1790.09163,703.084983 1790.58851,699.167006 1790.36969,695.906765 C1790.12272,692.228743 1791.22195,688.515655 1794.79662,686.02581 C1795.69342,685.401091 1796.07416,683.109292 1795.74693,681.824422 C1794.70368,677.7286 1798.21262,676.358036 1800.1052,674.184175 C1801.24587,672.87402 1803.35758,672.409382 1805.19139,671.564793 C1806.48486,672.409382 1807.60497,673.275002 1808.75833,674.094034 C1810.94241,675.645363 1813.45775,676.885945 1815.2164,678.81875 C1816.17335,679.870585 1815.77282,682.098593 1816.14815,683.759179 C1816.40362,684.890329 1816.63142,686.542545 1817.40682,686.954352 C1821.24037,688.990404 1820.95412,692.183837 1820.66307,695.715292 C1820.55621,697.01147 1821.47404,698.256248 1821.40909,699.939007 C1821.29481,702.900991 1820.00582,704.649262 1818.23944,706.66633 C1817.09057,707.978187 1816.18928,710.051624 1816.22856,711.759764 C1816.36141,717.537803 1817.15861,723.299566 1817.32006,729.078204 C1817.43945,733.344718 1816.87251,737.625846 1816.77586,741.904171 C1816.66962,746.617751 1816.74694,751.335584 1816.7604,756.051523 C1816.5193,761.232023 1816.22222,765.233568 1817.14423,769.288853 C1817.48569,770.79048 1816.78947,772.502236 1816.80772,774.11548 C1816.81545,774.802541 1817.5143,775.457435 1817.76266,776.174188 C1817.9569,776.734785 1818.22784,777.560332 1817.97391,777.939644 C1815.52925,781.591492 1817.98335,785.928428 1816.23305,789.745401 C1815.70292,790.901159 1816.26027,792.795283 1816.80215,794.159506 C1818.71374,798.970901 1817.32501,803.857571 1817.32811,808.698388 C1817.3295,810.868248 1817.91113,811.698706 1820.15382,811.631008 C1821.21671,811.598958 1822.3011,812.393266 1823.38378,812.790672 C1826.81247,811.011915 1830.60364,812.686826 1833.29868,810.053217 C1834.14569,809.225582 1835.89614,809.201573 1837.25982,809.047041 C1840.82954,808.642599 1844.44194,809.953662 1848.05806,808.59547 C1848.91929,808.272025 1850.51355,809.163723 1851.44839,809.903557 C1855.04255,812.74826 1855.58366,813.07677 1859.06724,811.44083 C1859.87419,811.061828 1860.0126,809.259101 1860.45861,808.111501 C1855.02306,808.808691 1852.67985,808.208039 1850.94811,805.632578 C1849.19023,803.018261 1847.03213,806.060178 1845.02048,805.309982 C1835.66154,803.970735 1830.38312,807.007781 1824.91371,808.845574 C1822.35522,809.705221 1821.25537,808.862894 1821.22429,806.460522 C1821.18857,803.70072 1821.44389,800.936936 1821.58833,798.175626 C1818.3361,795.047145 1822.37455,792.922133 1822.26816,790.530585 C1822.1664,788.247446 1822.12341,785.95901 1822.15202,783.67413 C1822.16191,782.876845 1822.39976,782.061466 1822.66297,781.299015 C1823.71813,782.391484 1823.94593,783.489327 1824.39239,783.609681 C1827.78071,784.523146 1829.79283,786.297842 1829.46374,790.123746 C1832.92892,789.846386 1836.0862,791.586519 1837.17136,793.536895 C1837.68927,794.467951 1838.98692,794.965104 1839.9315,795.658776 C1841.57386,791.881277 1844.73686,794.148488 1847.24663,793.81557 C1851.65887,794.962127 1852.41246,795.573411 1852.90826,795.680001 C1856.20008,796.387514 1859.73965,796.466462 1862.7579,797.770024 C1865.56599,798.982848 1867.46954,798.413474 1869.77981,797.046893 C1871.07282,796.282121 1872.73172,796.131224 1874.23103,795.722336 C1877.83276,794.740015 1879.10365,794.222486 1880.41491,793.841009 C1884.24289,793.119579 1886.30124,792.110349 1884.67497,796.226565 C1883.99978,797.935575 1888.41574,799.337996 1890.55652,797.387426 C1897.8336,798.526908 1900.82757,799.083794 1903.65004,799.883709 C1905.01557,798.938348 1904.60715,798.48554 1904.64767,798.256313 C1904.80788,797.34772 1904.76334,796.121443 1905.33136,795.617601 C1907.25007,793.915202 1909.31662,792.522098 1908.71149,789.367287 C1908.59318,788.751287 1909.91495,787.859087 1910.57267,787.094277 C1912.73866,788.68939 1913.85057,788.849257 1914.93697,789.056562 C1916.4338,789.536433 1916.64582,790.215955 1916.4921,790.61943 C1916.00728,791.892412 1915.64278,793.473451 1914.67901,794.246727 C1912.72582,795.813964 1913.15914,797.67221 1912.88155,799.721677 C1912.39054,803.346925 1912.60226,806.966722 1910.93361,810.707414 C1909.61076,813.672704 1909.73788,818.320831 1911.74056,821.929106 C1912.09486,822.567375 1912.87645,822.968647 1913.46055,823.479409 C1913.34889,822.807775 1913.15342,822.135329 1913.15992,821.464854 C1917.77675,817.475295 1918.64572,812.974432 1916.04563,808.520079 C1915.75876,808.028339 1915.39797,807.150366 1915.61618,806.85785 C1918.8347,802.542758 1916.74278,796.95364 1919.13765,792.470059 C1919.33591,791.290872 1919.30328,790.337469 1919.2759,789.38399 C1919.51777,790.575974 1919.97089,791.767882 1919.97135,792.959944 C1920.00398,888.578148 1920.00151,984.196391 1920.00151,1079.97295 C1280.97099,1080.13131 641.940516,1080.12981 2.91004426,1080.19 C0.535313002,1080.1902 -0.00180706332,1079.65585 4.56119858e-06,1077.28081 C0.0702360496,985.221434 0.0595804036,893.16198 0.0595804036,800.944205 C3.68513831,800.785846 7.58760493,801.616264 10.8503629,800.52828 C13.5565948,799.625834 15.7997286,796.68927 17.7075783,794.233892 C19.3535975,792.115452 21.0143676,790.781192 23.7301669,790.624998 C29.613714,790.28659 35.4943067,789.867495 41.3664463,789.367906 C48.0989706,788.795092 48.0047231,788.720474 49.5096294,782.359201 C50.1531457,779.639028 51.5318838,777.569611 55.0098862,777.930713 C58.0976456,778.251298 61.1389628,777.798529 64.1495629,779.514691 C67.486237,781.41674 71.1195437,779.149994 74.6310561,778.936928 C75.177347,778.903756 75.9017245,776.7748 76.0115437,775.566577 C76.2888984,772.515226 78.5703031,771.094827 81.442813,772.219811 C83.5354224,773.039365 85.7497584,774.001737 87.9165209,774.018169 C89.3523239,774.029033 90.7692892,772.418958 92.263607,771.672436 C95.3729641,772.439255 96.9754764,772.893881 98.4713506,773.576843 C100.183219,774.358393 101.527103,774.270089 102.684889,772.655955 C105.667532,774.976829 108.062032,774.680215 109.946476,773.459543 C112.71184,771.668221 115.376605,772.884718 118.084189,772.931962 C119.789503,772.961693 121.30379,772.977738 121.086511,770.565004 C125.806693,767.949837 125.133909,764.995024 124.376631,761.994668 C123.873322,760.000565 123.96266,758.694489 126.703453,758.922903 C129.674962,759.170533 132.700142,758.778501 135.670742,759.031505 C139.121783,759.325451 141.524711,763.76372 139.993626,766.752671 C137.210932,766.791217 136.140725,766.095187 135.007064,765.997333 C132.944176,765.819335 130.807695,765.691363 128.798141,766.062904 C127.896885,766.229537 127.217211,767.642474 126.464398,768.513566 C123.113482,768.549405 122.921526,771.905528 121.180024,773.260125 C120.758436,773.588055 120.867762,775.402109 121.367833,775.921571 C122.103268,776.685452 123.405978,776.907913 124.472744,777.347073 C126.732498,778.277433 128.455945,777.247441 128.589773,774.575634 C128.679352,772.787213 129.302513,772.200055 131.024317,772.233265 C136.15271,772.813386 137.23496,773.418291 138.396883,771.778524 C139.882057,773.108223 140.215951,774.224313 140.707284,775.265556 C140.16542,772.667284 143.168379,772.067444 143.636728,771.767737 C148.079541,773.07246 148.637788,771.997311 149.621693,771.340716 C153.206735,773.937984 154.068652,775.749293 155.387339,776.97994 C162.096226,777.948266 164.542649,775.050596 164.474334,772.2831 C167.608048,774.52808 168.670687,773.315759 169.833867,771.784285 C172.863774,772.856108 174.695512,774.563224 176.815455,773.293335 C182.191355,772.499476 184.823789,773.110673 186.503706,772.129947 Z" id="Combined-Shape" fill="#000000" fill-rule="nonzero"></path>
        </g>
    </g>
</svg>